<mxfile host="65bd71144e">
    <diagram id="HwtfOQL0u1bnhepvhA12" name="Page-1">
        <mxGraphModel dx="1778" dy="1060" grid="1" gridSize="10" guides="1" tooltips="1" connect="1" arrows="1" fold="1" page="1" pageScale="1" pageWidth="1169" pageHeight="827" math="0" shadow="0">
            <root>
                <mxCell id="0"/>
                <mxCell id="1" parent="0"/>
                <mxCell id="3" value="&lt;font style=&quot;font-size: 18px&quot;&gt;Logo&lt;/font&gt;" style="whiteSpace=wrap;html=1;aspect=fixed;" parent="1" vertex="1">
                    <mxGeometry x="75.5" y="40" width="70" height="70" as="geometry"/>
                </mxCell>
                <mxCell id="6" value="NHÂN VIÊN" style="rounded=1;whiteSpace=wrap;html=1;" parent="1" vertex="1">
                    <mxGeometry x="181.5" y="50" width="110" height="50" as="geometry"/>
                </mxCell>
                <mxCell id="7" value="PHÒNG BAN" style="rounded=1;whiteSpace=wrap;html=1;" parent="1" vertex="1">
                    <mxGeometry x="331.5" y="50" width="110" height="50" as="geometry"/>
                </mxCell>
                <mxCell id="13" value="BẢNG LƯƠNG" style="rounded=1;whiteSpace=wrap;html=1;" parent="1" vertex="1">
                    <mxGeometry x="484.5" y="50" width="110" height="50" as="geometry"/>
                </mxCell>
                <mxCell id="15" value="&lt;font style=&quot;font-size: 18px&quot;&gt;DANH SÁCH NHÂN VIÊN&lt;/font&gt;" style="text;html=1;strokeColor=none;fillColor=none;align=center;verticalAlign=middle;whiteSpace=wrap;rounded=0;" parent="1" vertex="1">
                    <mxGeometry x="109" y="180" width="260" height="20" as="geometry"/>
                </mxCell>
                <mxCell id="19" value="TÊN NHÂN VIÊN" style="swimlane;direction=west;" parent="1" vertex="1">
                    <mxGeometry x="63" y="229" width="160" height="170" as="geometry"/>
                </mxCell>
                <mxCell id="20" value="&lt;font style=&quot;font-size: 21px&quot;&gt;ẢNH&lt;/font&gt;" style="text;html=1;align=center;verticalAlign=middle;resizable=0;points=[];autosize=1;strokeColor=none;" parent="19" vertex="1">
                    <mxGeometry x="55" y="60" width="60" height="20" as="geometry"/>
                </mxCell>
                <mxCell id="49" value="ICON SOCIAL" style="whiteSpace=wrap;html=1;aspect=fixed;" parent="1" vertex="1">
                    <mxGeometry x="691" y="730" width="50" height="50" as="geometry"/>
                </mxCell>
                <mxCell id="50" value="ICON SOCIAL" style="whiteSpace=wrap;html=1;aspect=fixed;" parent="1" vertex="1">
                    <mxGeometry x="454" y="730" width="50" height="50" as="geometry"/>
                </mxCell>
                <mxCell id="53" value="ICON SOCIAL" style="whiteSpace=wrap;html=1;aspect=fixed;" parent="1" vertex="1">
                    <mxGeometry x="531" y="730" width="50" height="50" as="geometry"/>
                </mxCell>
                <mxCell id="55" value="ICON SOCIAL" style="whiteSpace=wrap;html=1;aspect=fixed;" parent="1" vertex="1">
                    <mxGeometry x="611" y="730" width="50" height="50" as="geometry"/>
                </mxCell>
                <mxCell id="64" value="&lt;h1&gt;Company Info&lt;/h1&gt;&lt;p&gt;Lorem ipsum dolor sit amet, consectetur adipisicing elit, sed do eiusmod tempor incididunt ut labore et dolore magna aliqua.&lt;/p&gt;" style="text;html=1;strokeColor=none;fillColor=none;spacing=5;spacingTop=-20;whiteSpace=wrap;overflow=hidden;rounded=0;" parent="1" vertex="1">
                    <mxGeometry x="121" y="680" width="190" height="120" as="geometry"/>
                </mxCell>
                <mxCell id="178" value="TÊN NHÂN VIÊN" style="swimlane;direction=west;" parent="1" vertex="1">
                    <mxGeometry x="60" y="480" width="160" height="170" as="geometry"/>
                </mxCell>
                <mxCell id="179" value="&lt;font style=&quot;font-size: 21px&quot;&gt;ẢNH&lt;/font&gt;" style="text;html=1;align=center;verticalAlign=middle;resizable=0;points=[];autosize=1;strokeColor=none;" parent="178" vertex="1">
                    <mxGeometry x="50" y="60" width="60" height="20" as="geometry"/>
                </mxCell>
                <mxCell id="224" value="TÊN NHÂN VIÊN" style="swimlane;direction=west;" parent="1" vertex="1">
                    <mxGeometry x="243" y="229" width="160" height="170" as="geometry"/>
                </mxCell>
                <mxCell id="225" value="&lt;font style=&quot;font-size: 21px&quot;&gt;ẢNH&lt;/font&gt;" style="text;html=1;align=center;verticalAlign=middle;resizable=0;points=[];autosize=1;strokeColor=none;" parent="224" vertex="1">
                    <mxGeometry x="55" y="60" width="60" height="20" as="geometry"/>
                </mxCell>
                <mxCell id="226" value="TÊN NHÂN VIÊN" style="swimlane;direction=west;" parent="1" vertex="1">
                    <mxGeometry x="240" y="480" width="160" height="170" as="geometry"/>
                </mxCell>
                <mxCell id="227" value="&lt;font style=&quot;font-size: 21px&quot;&gt;ẢNH&lt;/font&gt;" style="text;html=1;align=center;verticalAlign=middle;resizable=0;points=[];autosize=1;strokeColor=none;" parent="226" vertex="1">
                    <mxGeometry x="50" y="60" width="60" height="20" as="geometry"/>
                </mxCell>
                <mxCell id="236" value="TÊN NHÂN VIÊN" style="swimlane;direction=west;" parent="1" vertex="1">
                    <mxGeometry x="419" y="229.5" width="160" height="170" as="geometry"/>
                </mxCell>
                <mxCell id="237" value="&lt;font style=&quot;font-size: 21px&quot;&gt;ẢNH&lt;/font&gt;" style="text;html=1;align=center;verticalAlign=middle;resizable=0;points=[];autosize=1;strokeColor=none;" parent="236" vertex="1">
                    <mxGeometry x="55" y="60" width="60" height="20" as="geometry"/>
                </mxCell>
                <mxCell id="238" value="TÊN NHÂN VIÊN" style="swimlane;direction=west;" parent="1" vertex="1">
                    <mxGeometry x="416" y="480.5" width="160" height="170" as="geometry"/>
                </mxCell>
                <mxCell id="239" value="&lt;font style=&quot;font-size: 21px&quot;&gt;ẢNH&lt;/font&gt;" style="text;html=1;align=center;verticalAlign=middle;resizable=0;points=[];autosize=1;strokeColor=none;" parent="238" vertex="1">
                    <mxGeometry x="50" y="60" width="60" height="20" as="geometry"/>
                </mxCell>
                <mxCell id="248" value="TÊN NHÂN VIÊN" style="swimlane;direction=west;" parent="1" vertex="1">
                    <mxGeometry x="603" y="230" width="160" height="170" as="geometry"/>
                </mxCell>
                <mxCell id="249" value="&lt;font style=&quot;font-size: 21px&quot;&gt;ẢNH&lt;/font&gt;" style="text;html=1;align=center;verticalAlign=middle;resizable=0;points=[];autosize=1;strokeColor=none;" parent="248" vertex="1">
                    <mxGeometry x="55" y="60" width="60" height="20" as="geometry"/>
                </mxCell>
                <mxCell id="250" value="TÊN NHÂN VIÊN" style="swimlane;direction=west;" parent="1" vertex="1">
                    <mxGeometry x="600" y="481" width="160" height="170" as="geometry"/>
                </mxCell>
                <mxCell id="251" value="&lt;font style=&quot;font-size: 21px&quot;&gt;ẢNH&lt;/font&gt;" style="text;html=1;align=center;verticalAlign=middle;resizable=0;points=[];autosize=1;strokeColor=none;" parent="250" vertex="1">
                    <mxGeometry x="50" y="60" width="60" height="20" as="geometry"/>
                </mxCell>
                <mxCell id="254" value="TÊN NHÂN VIÊN" style="swimlane;direction=west;" parent="1" vertex="1">
                    <mxGeometry x="789" y="230" width="160" height="170" as="geometry"/>
                </mxCell>
                <mxCell id="255" value="&lt;font style=&quot;font-size: 21px&quot;&gt;ẢNH&lt;/font&gt;" style="text;html=1;align=center;verticalAlign=middle;resizable=0;points=[];autosize=1;strokeColor=none;" parent="254" vertex="1">
                    <mxGeometry x="55" y="60" width="60" height="20" as="geometry"/>
                </mxCell>
                <mxCell id="256" value="TÊN NHÂN VIÊN" style="swimlane;direction=west;" parent="1" vertex="1">
                    <mxGeometry x="786" y="481" width="160" height="170" as="geometry"/>
                </mxCell>
                <mxCell id="257" value="&lt;font style=&quot;font-size: 21px&quot;&gt;ẢNH&lt;/font&gt;" style="text;html=1;align=center;verticalAlign=middle;resizable=0;points=[];autosize=1;strokeColor=none;" parent="256" vertex="1">
                    <mxGeometry x="50" y="60" width="60" height="20" as="geometry"/>
                </mxCell>
                <mxCell id="260" value="TÊN NHÂN VIÊN" style="swimlane;direction=west;" parent="1" vertex="1">
                    <mxGeometry x="977" y="229" width="160" height="170" as="geometry"/>
                </mxCell>
                <mxCell id="261" value="&lt;font style=&quot;font-size: 21px&quot;&gt;ẢNH&lt;/font&gt;" style="text;html=1;align=center;verticalAlign=middle;resizable=0;points=[];autosize=1;strokeColor=none;" parent="260" vertex="1">
                    <mxGeometry x="55" y="60" width="60" height="20" as="geometry"/>
                </mxCell>
                <mxCell id="262" value="TÊN NHÂN VIÊN" style="swimlane;direction=west;" parent="1" vertex="1">
                    <mxGeometry x="974" y="480" width="160" height="170" as="geometry"/>
                </mxCell>
                <mxCell id="263" value="&lt;font style=&quot;font-size: 21px&quot;&gt;ẢNH&lt;/font&gt;" style="text;html=1;align=center;verticalAlign=middle;resizable=0;points=[];autosize=1;strokeColor=none;" parent="262" vertex="1">
                    <mxGeometry x="50" y="60" width="60" height="20" as="geometry"/>
                </mxCell>
                <mxCell id="315" value="&lt;font style=&quot;font-size: 18px&quot;&gt;Logo&lt;/font&gt;" style="whiteSpace=wrap;html=1;aspect=fixed;" parent="1" vertex="1">
                    <mxGeometry x="78" y="880" width="70" height="70" as="geometry"/>
                </mxCell>
                <mxCell id="318" value="NHÂN VIÊN" style="rounded=1;whiteSpace=wrap;html=1;fillColor=#647687;strokeColor=#314354;fontColor=#ffffff;" parent="1" vertex="1">
                    <mxGeometry x="198" y="890" width="110" height="50" as="geometry"/>
                </mxCell>
                <mxCell id="320" value="PHÒNG BAN" style="rounded=1;whiteSpace=wrap;html=1;" parent="1" vertex="1">
                    <mxGeometry x="348" y="890" width="110" height="50" as="geometry"/>
                </mxCell>
                <mxCell id="321" value="BẢNG LƯƠNG" style="rounded=1;whiteSpace=wrap;html=1;" parent="1" vertex="1">
                    <mxGeometry x="501" y="890" width="110" height="50" as="geometry"/>
                </mxCell>
                <mxCell id="325" value="ICON SOCIAL" style="whiteSpace=wrap;html=1;aspect=fixed;" parent="1" vertex="1">
                    <mxGeometry x="646" y="1520" width="50" height="50" as="geometry"/>
                </mxCell>
                <mxCell id="326" value="ICON SOCIAL" style="whiteSpace=wrap;html=1;aspect=fixed;" parent="1" vertex="1">
                    <mxGeometry x="409" y="1520" width="50" height="50" as="geometry"/>
                </mxCell>
                <mxCell id="327" value="ICON SOCIAL" style="whiteSpace=wrap;html=1;aspect=fixed;" parent="1" vertex="1">
                    <mxGeometry x="486" y="1520" width="50" height="50" as="geometry"/>
                </mxCell>
                <mxCell id="328" value="ICON SOCIAL" style="whiteSpace=wrap;html=1;aspect=fixed;" parent="1" vertex="1">
                    <mxGeometry x="566" y="1520" width="50" height="50" as="geometry"/>
                </mxCell>
                <mxCell id="329" value="&lt;h1&gt;Company Info&lt;/h1&gt;&lt;p&gt;Lorem ipsum dolor sit amet, consectetur adipisicing elit, sed do eiusmod tempor incididunt ut labore et dolore magna aliqua.&lt;/p&gt;" style="text;html=1;strokeColor=none;fillColor=none;spacing=5;spacingTop=-20;whiteSpace=wrap;overflow=hidden;rounded=0;" parent="1" vertex="1">
                    <mxGeometry x="76" y="1470" width="190" height="120" as="geometry"/>
                </mxCell>
                <mxCell id="364" value="" style="verticalLabelPosition=bottom;shadow=0;dashed=0;align=center;html=1;verticalAlign=top;strokeWidth=1;shape=mxgraph.mockup.containers.userMale;strokeColor=#666666;strokeColor2=#008cff;fillColor=#2A2A2A;" parent="1" vertex="1">
                    <mxGeometry x="70" y="1025" width="390" height="410" as="geometry"/>
                </mxCell>
                <mxCell id="365" value="&lt;h1&gt;&lt;font style=&quot;font-size: 37px&quot;&gt;Họ và tên&lt;/font&gt;&lt;/h1&gt;&lt;p style=&quot;font-size: 29px&quot;&gt;&lt;font style=&quot;font-size: 29px&quot;&gt;Ngày sinh:&lt;/font&gt;&lt;/p&gt;&lt;p style=&quot;font-size: 29px&quot;&gt;&lt;font style=&quot;font-size: 29px&quot;&gt;Ngày vào công ty:&lt;/font&gt;&lt;/p&gt;&lt;p style=&quot;font-size: 29px&quot;&gt;&lt;font style=&quot;font-size: 29px&quot;&gt;Phòng ban:&lt;/font&gt;&lt;/p&gt;&lt;p style=&quot;font-size: 29px&quot;&gt;&lt;br&gt;&lt;/p&gt;" style="text;html=1;strokeColor=none;fillColor=none;spacing=5;spacingTop=-20;whiteSpace=wrap;overflow=hidden;rounded=0;" parent="1" vertex="1">
                    <mxGeometry x="512" y="1025" width="327" height="500" as="geometry"/>
                </mxCell>
                <mxCell id="411" value="&lt;font style=&quot;font-size: 18px&quot;&gt;Logo&lt;/font&gt;" style="whiteSpace=wrap;html=1;aspect=fixed;" parent="1" vertex="1">
                    <mxGeometry x="81" y="1690" width="70" height="70" as="geometry"/>
                </mxCell>
                <mxCell id="412" value="NHÂN VIÊN" style="rounded=1;whiteSpace=wrap;html=1;" parent="1" vertex="1">
                    <mxGeometry x="187" y="1700" width="110" height="50" as="geometry"/>
                </mxCell>
                <mxCell id="413" value="PHÒNG BAN" style="rounded=1;whiteSpace=wrap;html=1;" parent="1" vertex="1">
                    <mxGeometry x="337" y="1700" width="110" height="50" as="geometry"/>
                </mxCell>
                <mxCell id="414" value="BẢNG LƯƠNG" style="rounded=1;whiteSpace=wrap;html=1;fillColor=#647687;strokeColor=#314354;fontColor=#ffffff;" parent="1" vertex="1">
                    <mxGeometry x="490" y="1700" width="110" height="50" as="geometry"/>
                </mxCell>
                <mxCell id="418" value="ICON SOCIAL" style="whiteSpace=wrap;html=1;aspect=fixed;" parent="1" vertex="1">
                    <mxGeometry x="648.5" y="2400" width="50" height="50" as="geometry"/>
                </mxCell>
                <mxCell id="419" value="ICON SOCIAL" style="whiteSpace=wrap;html=1;aspect=fixed;" parent="1" vertex="1">
                    <mxGeometry x="411.5" y="2400" width="50" height="50" as="geometry"/>
                </mxCell>
                <mxCell id="420" value="ICON SOCIAL" style="whiteSpace=wrap;html=1;aspect=fixed;" parent="1" vertex="1">
                    <mxGeometry x="488.5" y="2400" width="50" height="50" as="geometry"/>
                </mxCell>
                <mxCell id="421" value="ICON SOCIAL" style="whiteSpace=wrap;html=1;aspect=fixed;" parent="1" vertex="1">
                    <mxGeometry x="568.5" y="2400" width="50" height="50" as="geometry"/>
                </mxCell>
                <mxCell id="422" value="&lt;h1&gt;Company Info&lt;/h1&gt;&lt;p&gt;Lorem ipsum dolor sit amet, consectetur adipisicing elit, sed do eiusmod tempor incididunt ut labore et dolore magna aliqua.&lt;/p&gt;" style="text;html=1;strokeColor=none;fillColor=none;spacing=5;spacingTop=-20;whiteSpace=wrap;overflow=hidden;rounded=0;" parent="1" vertex="1">
                    <mxGeometry x="78.5" y="2350" width="190" height="120" as="geometry"/>
                </mxCell>
                <mxCell id="493" value="NHÂN VIÊN" style="strokeWidth=1;shadow=0;dashed=0;align=center;html=1;shape=mxgraph.mockup.navigation.anchor;fontSize=17;fontColor=#666666;fontStyle=1;fillColor=#2A2A2A;" parent="1" vertex="1">
                    <mxGeometry x="70" y="975" width="107" height="28" as="geometry"/>
                </mxCell>
                <mxCell id="495" value="TÊN NHÂN VIÊN" style="strokeWidth=1;shadow=0;dashed=0;align=center;html=1;shape=mxgraph.mockup.navigation.anchor;fontSize=17;fontColor=#666666;fontStyle=1;fillColor=#2A2A2A;" parent="1" vertex="1">
                    <mxGeometry x="150" y="973" width="267" height="30" as="geometry"/>
                </mxCell>
                <mxCell id="496" value="&gt;" style="strokeWidth=1;shadow=0;dashed=0;align=center;html=1;shape=mxgraph.mockup.navigation.anchor;fontSize=24;fontColor=#aaaaaa;fontStyle=1;fillColor=#2A2A2A;" parent="1" vertex="1">
                    <mxGeometry x="187" y="973" width="20" height="30" as="geometry"/>
                </mxCell>
                <mxCell id="500" value="NHÂN VIÊN" style="strokeWidth=1;shadow=0;dashed=0;align=center;html=1;shape=mxgraph.mockup.navigation.anchor;fontSize=17;fontColor=#666666;fontStyle=1;fillColor=#2A2A2A;" parent="1" vertex="1">
                    <mxGeometry x="81" y="1778" width="107" height="30" as="geometry"/>
                </mxCell>
                <mxCell id="501" value="BẢNG LƯƠNG" style="strokeWidth=1;shadow=0;dashed=0;align=center;html=1;shape=mxgraph.mockup.navigation.anchor;fontSize=17;fontColor=#666666;fontStyle=1;fillColor=#2A2A2A;" parent="1" vertex="1">
                    <mxGeometry x="161" y="1778" width="267" height="30" as="geometry"/>
                </mxCell>
                <mxCell id="502" value="&gt;" style="strokeWidth=1;shadow=0;dashed=0;align=center;html=1;shape=mxgraph.mockup.navigation.anchor;fontSize=24;fontColor=#aaaaaa;fontStyle=1;fillColor=#2A2A2A;" parent="1" vertex="1">
                    <mxGeometry x="198" y="1778" width="20" height="30" as="geometry"/>
                </mxCell>
                <mxCell id="503" value="&lt;font style=&quot;font-size: 18px&quot;&gt;Logo&lt;/font&gt;" style="whiteSpace=wrap;html=1;aspect=fixed;" parent="1" vertex="1">
                    <mxGeometry x="81" y="2520" width="70" height="70" as="geometry"/>
                </mxCell>
                <mxCell id="504" value="NHÂN VIÊN" style="rounded=1;whiteSpace=wrap;html=1;" parent="1" vertex="1">
                    <mxGeometry x="187" y="2530" width="110" height="50" as="geometry"/>
                </mxCell>
                <mxCell id="505" value="PHÒNG BAN" style="rounded=1;whiteSpace=wrap;html=1;fillColor=#647687;strokeColor=#314354;fontColor=#ffffff;" parent="1" vertex="1">
                    <mxGeometry x="337" y="2530" width="110" height="50" as="geometry"/>
                </mxCell>
                <mxCell id="506" value="BẢNG LƯƠNG" style="rounded=1;whiteSpace=wrap;html=1;" parent="1" vertex="1">
                    <mxGeometry x="490" y="2530" width="110" height="50" as="geometry"/>
                </mxCell>
                <mxCell id="507" value="ICON SOCIAL" style="whiteSpace=wrap;html=1;aspect=fixed;" parent="1" vertex="1">
                    <mxGeometry x="653" y="3210" width="50" height="50" as="geometry"/>
                </mxCell>
                <mxCell id="508" value="ICON SOCIAL" style="whiteSpace=wrap;html=1;aspect=fixed;" parent="1" vertex="1">
                    <mxGeometry x="416" y="3210" width="50" height="50" as="geometry"/>
                </mxCell>
                <mxCell id="509" value="ICON SOCIAL" style="whiteSpace=wrap;html=1;aspect=fixed;" parent="1" vertex="1">
                    <mxGeometry x="493" y="3210" width="50" height="50" as="geometry"/>
                </mxCell>
                <mxCell id="510" value="ICON SOCIAL" style="whiteSpace=wrap;html=1;aspect=fixed;" parent="1" vertex="1">
                    <mxGeometry x="573" y="3210" width="50" height="50" as="geometry"/>
                </mxCell>
                <mxCell id="511" value="&lt;h1&gt;Company Info&lt;/h1&gt;&lt;p&gt;Lorem ipsum dolor sit amet, consectetur adipisicing elit, sed do eiusmod tempor incididunt ut labore et dolore magna aliqua.&lt;/p&gt;" style="text;html=1;strokeColor=none;fillColor=none;spacing=5;spacingTop=-20;whiteSpace=wrap;overflow=hidden;rounded=0;" parent="1" vertex="1">
                    <mxGeometry x="83" y="3160" width="190" height="120" as="geometry"/>
                </mxCell>
                <mxCell id="522" value="&lt;font style=&quot;font-size: 32px&quot; color=&quot;#ffffff&quot;&gt;PHÒNG BAN &lt;br&gt;Số nhân viên:&amp;nbsp;&lt;br&gt;&lt;/font&gt;" style="rounded=1;whiteSpace=wrap;html=1;fillColor=#2A2A2A;fontColor=#F0F0F0;" parent="1" vertex="1">
                    <mxGeometry x="78" y="2650" width="282" height="220" as="geometry"/>
                </mxCell>
                <mxCell id="529" value="&lt;blockquote style=&quot;margin: 0 0 0 40px ; border: none ; padding: 0px&quot;&gt;&lt;font color=&quot;#ffffff&quot;&gt;&lt;font style=&quot;font-size: 24px&quot;&gt;HỌ VÀ TÊN&lt;br&gt;&lt;/font&gt;&lt;font style=&quot;font-size: 24px&quot;&gt;Mã nhân viên:&lt;br&gt;&lt;/font&gt;&lt;font style=&quot;font-size: 24px&quot;&gt;Hệ số lương:&lt;br&gt;&lt;/font&gt;&lt;font style=&quot;font-size: 24px&quot;&gt;Số giờ làm thêm:&lt;/font&gt;&lt;/font&gt;&lt;/blockquote&gt;&lt;font style=&quot;font-size: 24px&quot;&gt;&lt;br&gt;&lt;/font&gt;" style="rounded=1;whiteSpace=wrap;html=1;fillColor=#2A2A2A;align=left;" parent="1" vertex="1">
                    <mxGeometry x="81" y="1828" width="304" height="230" as="geometry"/>
                </mxCell>
                <mxCell id="531" value="&lt;blockquote style=&quot;margin: 0 0 0 40px ; border: none ; padding: 0px&quot;&gt;&lt;font style=&quot;font-size: 25px&quot; color=&quot;#ffffff&quot;&gt;Lương:&lt;/font&gt;&lt;/blockquote&gt;" style="rounded=1;whiteSpace=wrap;html=1;fillColor=#2A2A2A;align=left;" parent="1" vertex="1">
                    <mxGeometry x="107.5" y="1998" width="251" height="50" as="geometry"/>
                </mxCell>
                <mxCell id="553" value="&lt;blockquote style=&quot;margin: 0 0 0 40px ; border: none ; padding: 0px&quot;&gt;&lt;font color=&quot;#ffffff&quot;&gt;&lt;font style=&quot;font-size: 24px&quot;&gt;HỌ VÀ TÊN&lt;br&gt;&lt;/font&gt;&lt;font style=&quot;font-size: 24px&quot;&gt;Mã nhân viên:&lt;br&gt;&lt;/font&gt;&lt;font style=&quot;font-size: 24px&quot;&gt;Hệ số lương:&lt;br&gt;&lt;/font&gt;&lt;font style=&quot;font-size: 24px&quot;&gt;Số giờ làm thêm:&lt;/font&gt;&lt;/font&gt;&lt;/blockquote&gt;&lt;font style=&quot;font-size: 24px&quot;&gt;&lt;br&gt;&lt;/font&gt;" style="rounded=1;whiteSpace=wrap;html=1;fillColor=#2A2A2A;align=left;" vertex="1" parent="1">
                    <mxGeometry x="421" y="1828" width="304" height="230" as="geometry"/>
                </mxCell>
                <mxCell id="555" value="&lt;blockquote style=&quot;margin: 0 0 0 40px ; border: none ; padding: 0px&quot;&gt;&lt;font color=&quot;#ffffff&quot;&gt;&lt;font style=&quot;font-size: 24px&quot;&gt;HỌ VÀ TÊN&lt;br&gt;&lt;/font&gt;&lt;font style=&quot;font-size: 24px&quot;&gt;Mã nhân viên:&lt;br&gt;&lt;/font&gt;&lt;font style=&quot;font-size: 24px&quot;&gt;Hệ số lương:&lt;br&gt;&lt;/font&gt;&lt;font style=&quot;font-size: 24px&quot;&gt;Số giờ làm thêm:&lt;/font&gt;&lt;/font&gt;&lt;/blockquote&gt;&lt;font style=&quot;font-size: 24px&quot;&gt;&lt;br&gt;&lt;/font&gt;" style="rounded=1;whiteSpace=wrap;html=1;fillColor=#2A2A2A;align=left;" vertex="1" parent="1">
                    <mxGeometry x="768" y="1828" width="304" height="230" as="geometry"/>
                </mxCell>
                <mxCell id="558" value="&lt;blockquote style=&quot;margin: 0 0 0 40px ; border: none ; padding: 0px&quot;&gt;&lt;font style=&quot;font-size: 25px&quot; color=&quot;#ffffff&quot;&gt;Lương:&lt;/font&gt;&lt;/blockquote&gt;" style="rounded=1;whiteSpace=wrap;html=1;fillColor=#2A2A2A;align=left;" vertex="1" parent="1">
                    <mxGeometry x="445.5" y="1998" width="251" height="50" as="geometry"/>
                </mxCell>
                <mxCell id="559" value="&lt;blockquote style=&quot;margin: 0 0 0 40px ; border: none ; padding: 0px&quot;&gt;&lt;font style=&quot;font-size: 25px&quot; color=&quot;#ffffff&quot;&gt;Lương:&lt;/font&gt;&lt;/blockquote&gt;" style="rounded=1;whiteSpace=wrap;html=1;fillColor=#2A2A2A;align=left;" vertex="1" parent="1">
                    <mxGeometry x="794.5" y="1998" width="251" height="50" as="geometry"/>
                </mxCell>
                <mxCell id="560" value="&lt;blockquote style=&quot;margin: 0 0 0 40px ; border: none ; padding: 0px&quot;&gt;&lt;font color=&quot;#ffffff&quot;&gt;&lt;font style=&quot;font-size: 24px&quot;&gt;HỌ VÀ TÊN&lt;br&gt;&lt;/font&gt;&lt;font style=&quot;font-size: 24px&quot;&gt;Mã nhân viên:&lt;br&gt;&lt;/font&gt;&lt;font style=&quot;font-size: 24px&quot;&gt;Hệ số lương:&lt;br&gt;&lt;/font&gt;&lt;font style=&quot;font-size: 24px&quot;&gt;Số giờ làm thêm:&lt;/font&gt;&lt;/font&gt;&lt;/blockquote&gt;&lt;font style=&quot;font-size: 24px&quot;&gt;&lt;br&gt;&lt;/font&gt;" style="rounded=1;whiteSpace=wrap;html=1;fillColor=#2A2A2A;align=left;" vertex="1" parent="1">
                    <mxGeometry x="83" y="2078" width="304" height="230" as="geometry"/>
                </mxCell>
                <mxCell id="561" value="&lt;blockquote style=&quot;margin: 0 0 0 40px ; border: none ; padding: 0px&quot;&gt;&lt;font style=&quot;font-size: 25px&quot; color=&quot;#ffffff&quot;&gt;Lương:&lt;/font&gt;&lt;/blockquote&gt;" style="rounded=1;whiteSpace=wrap;html=1;fillColor=#2A2A2A;align=left;" vertex="1" parent="1">
                    <mxGeometry x="109.5" y="2248" width="251" height="50" as="geometry"/>
                </mxCell>
                <mxCell id="562" value="&lt;blockquote style=&quot;margin: 0 0 0 40px ; border: none ; padding: 0px&quot;&gt;&lt;font color=&quot;#ffffff&quot;&gt;&lt;font style=&quot;font-size: 24px&quot;&gt;HỌ VÀ TÊN&lt;br&gt;&lt;/font&gt;&lt;font style=&quot;font-size: 24px&quot;&gt;Mã nhân viên:&lt;br&gt;&lt;/font&gt;&lt;font style=&quot;font-size: 24px&quot;&gt;Hệ số lương:&lt;br&gt;&lt;/font&gt;&lt;font style=&quot;font-size: 24px&quot;&gt;Số giờ làm thêm:&lt;/font&gt;&lt;/font&gt;&lt;/blockquote&gt;&lt;font style=&quot;font-size: 24px&quot;&gt;&lt;br&gt;&lt;/font&gt;" style="rounded=1;whiteSpace=wrap;html=1;fillColor=#2A2A2A;align=left;" vertex="1" parent="1">
                    <mxGeometry x="423" y="2078" width="304" height="230" as="geometry"/>
                </mxCell>
                <mxCell id="563" value="&lt;blockquote style=&quot;margin: 0 0 0 40px ; border: none ; padding: 0px&quot;&gt;&lt;font color=&quot;#ffffff&quot;&gt;&lt;font style=&quot;font-size: 24px&quot;&gt;HỌ VÀ TÊN&lt;br&gt;&lt;/font&gt;&lt;font style=&quot;font-size: 24px&quot;&gt;Mã nhân viên:&lt;br&gt;&lt;/font&gt;&lt;font style=&quot;font-size: 24px&quot;&gt;Hệ số lương:&lt;br&gt;&lt;/font&gt;&lt;font style=&quot;font-size: 24px&quot;&gt;Số giờ làm thêm:&lt;/font&gt;&lt;/font&gt;&lt;/blockquote&gt;&lt;font style=&quot;font-size: 24px&quot;&gt;&lt;br&gt;&lt;/font&gt;" style="rounded=1;whiteSpace=wrap;html=1;fillColor=#2A2A2A;align=left;" vertex="1" parent="1">
                    <mxGeometry x="770" y="2078" width="304" height="230" as="geometry"/>
                </mxCell>
                <mxCell id="564" value="&lt;blockquote style=&quot;margin: 0 0 0 40px ; border: none ; padding: 0px&quot;&gt;&lt;font style=&quot;font-size: 25px&quot; color=&quot;#ffffff&quot;&gt;Lương:&lt;/font&gt;&lt;/blockquote&gt;" style="rounded=1;whiteSpace=wrap;html=1;fillColor=#2A2A2A;align=left;" vertex="1" parent="1">
                    <mxGeometry x="447.5" y="2248" width="251" height="50" as="geometry"/>
                </mxCell>
                <mxCell id="565" value="&lt;blockquote style=&quot;margin: 0 0 0 40px ; border: none ; padding: 0px&quot;&gt;&lt;font style=&quot;font-size: 25px&quot; color=&quot;#ffffff&quot;&gt;Lương:&lt;/font&gt;&lt;/blockquote&gt;" style="rounded=1;whiteSpace=wrap;html=1;fillColor=#2A2A2A;align=left;" vertex="1" parent="1">
                    <mxGeometry x="796.5" y="2248" width="251" height="50" as="geometry"/>
                </mxCell>
                <mxCell id="566" value="&lt;span style=&quot;color: rgb(255 , 255 , 255) ; font-size: 32px&quot;&gt;PHÒNG BAN &lt;br&gt;&lt;/span&gt;&lt;span style=&quot;color: rgb(255 , 255 , 255) ; font-size: 32px&quot;&gt;Số nhân viên:&amp;nbsp;&lt;/span&gt;&lt;font style=&quot;font-size: 32px&quot; color=&quot;#ffffff&quot;&gt;&lt;br&gt;&lt;/font&gt;" style="rounded=1;whiteSpace=wrap;html=1;fillColor=#2A2A2A;fontColor=#F0F0F0;" vertex="1" parent="1">
                    <mxGeometry x="434" y="2650" width="282" height="220" as="geometry"/>
                </mxCell>
                <mxCell id="567" value="&lt;span style=&quot;color: rgb(255 , 255 , 255) ; font-size: 32px&quot;&gt;PHÒNG BAN &lt;br&gt;&lt;/span&gt;&lt;span style=&quot;color: rgb(255 , 255 , 255) ; font-size: 32px&quot;&gt;Số nhân viên:&amp;nbsp;&lt;/span&gt;&lt;font style=&quot;font-size: 32px&quot; color=&quot;#ffffff&quot;&gt;&lt;br&gt;&lt;/font&gt;" style="rounded=1;whiteSpace=wrap;html=1;fillColor=#2A2A2A;fontColor=#F0F0F0;" vertex="1" parent="1">
                    <mxGeometry x="790" y="2650" width="282" height="220" as="geometry"/>
                </mxCell>
                <mxCell id="568" value="&lt;span style=&quot;color: rgb(255 , 255 , 255) ; font-size: 32px&quot;&gt;PHÒNG BAN &lt;br&gt;&lt;/span&gt;&lt;span style=&quot;color: rgb(255 , 255 , 255) ; font-size: 32px&quot;&gt;Số nhân viên:&amp;nbsp;&lt;/span&gt;&lt;font style=&quot;font-size: 32px&quot; color=&quot;#ffffff&quot;&gt;&lt;br&gt;&lt;/font&gt;" style="rounded=1;whiteSpace=wrap;html=1;fillColor=#2A2A2A;fontColor=#F0F0F0;" vertex="1" parent="1">
                    <mxGeometry x="83" y="2920" width="282" height="220" as="geometry"/>
                </mxCell>
            </root>
        </mxGraphModel>
    </diagram>
</mxfile>